<svg xmlns="http://www.w3.org/2000/svg" viewBox="0 0 245.42 64.45"><defs><style>.cls-1{fill:#299eff;}.cls-2{fill:#ff2c72;}.cls-3{font-size:12.6px;font-family:NotoSans, Noto Sans;letter-spacing:0.2em;}.cls-4{letter-spacing:0.19em;}</style></defs><title>Ресурс 1</title><g id="Слой_2" data-name="Слой 2"><g id="Слой_1-2" data-name="Слой 1"><path class="cls-1" d="M28.61,49.62,25,48.73q.11-15.27.2-30.53L7.33,10.64q-.21,22.52-.43,45L17.77,52.8l6.6,2.84L0,64.45.07.5l28.84,14Z"/><path class="cls-2" d="M24,10.94l5.47,2.88L40.44,9.94l.1,44.55-18-5.76-.09-30L19,17.21v35.1L47.11,63.94Q47.2,32,47.31,0Z"/><path d="M80.65,42.64V26.36L74.6,42.64H70.94l-6-16.28V42.64H56.7V15.57H68l4.75,13,4.75-13H88.84V42.64Z"/><path d="M106.58,43.12a16.54,16.54,0,0,1-5.85-1A14.06,14.06,0,0,1,96,39.25a13.25,13.25,0,0,1-3.13-4.43,13.88,13.88,0,0,1-1.13-5.7,14,14,0,0,1,1.13-5.7A13.2,13.2,0,0,1,96,19a13.9,13.9,0,0,1,4.7-2.86,17.26,17.26,0,0,1,11.69,0A13.94,13.94,0,0,1,117.13,19a13.2,13.2,0,0,1,3.13,4.42,14.11,14.11,0,0,1,1.13,5.7,14,14,0,0,1-1.13,5.7,13.25,13.25,0,0,1-3.13,4.43,14.1,14.1,0,0,1-4.71,2.86A16.48,16.48,0,0,1,106.58,43.12Zm0-7.22a6.58,6.58,0,0,0,2.66-.53,6.23,6.23,0,0,0,2.05-1.44,6.7,6.7,0,0,0,1.32-2.15,7.47,7.47,0,0,0,.46-2.66,7.55,7.55,0,0,0-.46-2.66,6.81,6.81,0,0,0-1.32-2.15,6.23,6.23,0,0,0-2.05-1.44,6.94,6.94,0,0,0-5.32,0,6.13,6.13,0,0,0-2,1.44,6.46,6.46,0,0,0-1.32,2.15,7.55,7.55,0,0,0-.46,2.66,7.47,7.47,0,0,0,.46,2.66,6.36,6.36,0,0,0,1.32,2.15,6.13,6.13,0,0,0,2,1.44A6.55,6.55,0,0,0,106.58,35.9Z"/><path d="M130.12,42.64V22.71h-7.27V15.57h22.69v7.14h-7.22V42.64Z"/><path d="M148.46,42.64V15.57h8.2V42.64Z"/><path d="M176.83,42.64l-6.09-9.54-1.5,2v7.51H161V15.57h8.2V25.71l7.1-10.14h10L176.14,28.15l10.67,14.49Z"/><path d="M201.63,43.12a16.54,16.54,0,0,1-5.85-1,14.06,14.06,0,0,1-4.7-2.86A13.25,13.25,0,0,1,188,34.82a13.88,13.88,0,0,1-1.14-5.7,14,14,0,0,1,1.14-5.7A13.2,13.2,0,0,1,191.08,19a13.9,13.9,0,0,1,4.7-2.86,17.26,17.26,0,0,1,11.69,0A14,14,0,0,1,212.18,19a13,13,0,0,1,3.12,4.42,14,14,0,0,1,1.14,5.7,13.88,13.88,0,0,1-1.14,5.7,13.08,13.08,0,0,1-3.12,4.43,14.2,14.2,0,0,1-4.71,2.86A16.48,16.48,0,0,1,201.63,43.12Zm0-7.22a6.58,6.58,0,0,0,2.66-.53,6.23,6.23,0,0,0,2.05-1.44,6.5,6.5,0,0,0,1.31-2.15,7.26,7.26,0,0,0,.47-2.66,7.34,7.34,0,0,0-.47-2.66,6.61,6.61,0,0,0-1.31-2.15,6.23,6.23,0,0,0-2.05-1.44,6.94,6.94,0,0,0-5.32,0,6.13,6.13,0,0,0-2.05,1.44,6.46,6.46,0,0,0-1.32,2.15,7.56,7.56,0,0,0-.47,2.66,7.48,7.48,0,0,0,.47,2.66,6.36,6.36,0,0,0,1.32,2.15A6.13,6.13,0,0,0,199,35.37,6.55,6.55,0,0,0,201.63,35.9Z"/><path d="M237.54,42.64l-10-13.72V42.64h-8.2V15.57h8.44l9.42,12.82V15.57h8.2V42.64Z"/><text class="cls-3" transform="translate(72.77 60.95) scale(0.95 1)">Wind<tspan class="cls-4" x="40.59" y="0">o</tspan><tspan x="50.62" y="0">ws and doors</tspan></text></g></g></svg>